PathFileType	4	(X/Y/Z)	22_1_2_p0_0-239.trc
DataRate	CameraRate	NumFrames	NumMarkers	Units	OrigDataRate	OrigDataStartFrame	OrigNumFrames
59.0	59.0	7	27	m	59.0	120	240
Frame#	Time	RHip			RKnee			RAnkle			RBigToe			RSmallToe			RHeel			LHip			LKnee			LAnkle			LBigToe			LSmallToe			LHeel			Neck			Head			Nose			RShoulder			RElbow			RWrist			RThumb			RIndex			RPinky			LShoulder			LElbow			LWrist			LThumb			LIndex			LPinky			
		X1	Y1	Z1	X2	Y2	Z2	X3	Y3	Z3	X4	Y4	Z4	X5	Y5	Z5	X6	Y6	Z6	X7	Y7	Z7	X8	Y8	Z8	X9	Y9	Z9	X10	Y10	Z10	X11	Y11	Z11	X12	Y12	Z12	X13	Y13	Z13	X14	Y14	Z14	X15	Y15	Z15	X16	Y16	Z16	X17	Y17	Z17	X18	Y18	Z18	X19	Y19	Z19	X20	Y20	Z20	X21	Y21	Z21	X22	Y22	Z22	X23	Y23	Z23	X24	Y24	Z24	X25	Y25	Z25	X26	Y26	Z26	X27	Y27	Z27	
120	2.0338983050847457	0.25926239579647925	0.5426972161374298	0.9154341476147586	0.2964400747010795	0.7316678746810845	1.3715002932038671	0.32640914996018705	0.8860744155805453	1.8150410939234303	0.2573259055553867	0.7522102327989219	1.906182574832531	0.3202631925164931	0.761523990845265	1.890918844771354	0.3099537284247659	1.021857270642373	1.873074664981562	0.01971478810214717	0.6045792666582382	0.9385544856469623	0.059713344721268886	0.7862306852169872	1.399331755881148	0.09075454609521835	0.9033956689946009	1.8198039970938966	0.11428444383759476	0.7509729766841752	1.9024634518711425	0.049855484334453276	0.7606148729905328	1.8855069552887624	0.11663174442543615	1.0135496354150002	1.883476112476025	0.11682271495234793	0.44879507211985137	0.3943032376016869	0.10159708202584324	0.341513593632751	0.1716132870902815	0.08512567650693734	0.3039574479817741	0.31311863781284177	0.2630296955285233	0.4253182551799762	0.4607486701303045	0.3622116734945009	0.4806060990001806	0.7220467834313783	0.3558873602573572	0.4491544445048746	0.9900394403439183	0.310252413781246	0.4046539095438855	1.121644835318501	0.3472841820136512	0.41825160501936987	1.1547541098527176	0.37575828125945193	0.48007347135423606	1.1415488623122005	-0.04737709404483344	0.46497516544825535	0.4691521231559318	-0.09807602412707796	0.5757169965906611	0.7191945665147677	-0.08569795127642928	0.47189490180354426	0.9873762847832392	-0.04352807333400954	0.5123379754828986	1.096589912464711	-0.06920465142429601	0.49576216638199283	1.1248735569990762	-0.09558325323013213	0.504499562842835	1.1239200231135766
121	2.0508474576271185	0.26480539552102267	0.5550311696912117	0.915908372013137	0.2975675413676861	0.7344418711672288	1.376670970865898	0.33270341210393717	0.9010340187436752	1.8197447936957583	0.25727526612218743	0.7535676027451985	1.9017366363820365	0.3226159644497091	0.7658083007066772	1.8953815318389506	0.31584074788115296	1.0247315724384476	1.879015258739428	0.02428968870448365	0.6179255553899543	0.9392210277795394	0.05911549562470064	0.7873090770975388	1.403571390704907	0.09219846329321277	0.9063038931393395	1.8251808161698335	0.1093647908068318	0.7359118680392739	1.897355011136058	0.049681714793564084	0.7595301755539965	1.885068924813892	0.1173131769996498	1.0108779175291793	1.8774290868452865	0.11687871855599886	0.44890552810593004	0.3943264246132193	0.10161056403655631	0.3416105085682081	0.171597773713102	0.0851078005476104	0.30409151452926364	0.3131019612021656	0.2631545815728384	0.42603910700794073	0.46400784098655257	0.3622887894687471	0.4806913275489598	0.7222338745301202	0.3584802941295198	0.4363490451055964	0.9924505328012703	0.3432867688604607	0.40955563742468787	1.125972644072828	0.3647900744364595	0.38572476700533986	1.144762791496441	0.38517894823362575	0.48063360049041526	1.1449014561001842	-0.04734623626860201	0.46492992601859606	0.4691870792609751	-0.09776048825605248	0.5756788036571618	0.7233634614153918	-0.08628487593515574	0.4711587852117541	0.9872682870498581	-0.05727072055143046	0.5146138284100259	1.1027568277486353	-0.07095061418831435	0.4962373215356637	1.1397261337945175	-0.1108798911972285	0.5154033281610517	1.1218769210405526
122	2.0677966101694913	0.26482776570944316	0.5547871788445606	0.9157161757391474	0.3026462346188819	0.7332204919753824	1.3798804874157817	0.32633543703280155	0.8856880290842751	1.8150439903846203	0.25631707604963805	0.7505499076792446	1.9059088666761999	0.3152495721520965	0.7290405692986005	1.879480425178686	0.3153091796666971	1.0239717841138425	1.8789104542428459	0.02433543789552883	0.6185005726177984	0.9391614844470526	0.059703345743115595	0.7861694947707563	1.3997087987513293	0.09078811106018592	0.9032219996779636	1.8197432049822548	0.11426893818862223	0.7510404377435859	1.9030952745997114	0.046785050681396184	0.7755641583760813	1.890910962604557	0.1170562705422125	1.0109554104962162	1.8776343784711285	0.11689837078694658	0.4488646187794044	0.3943580038078802	0.10157795243422482	0.34157831047306214	0.171599570812758	0.08508330055015895	0.30407416930905296	0.31308959278352233	0.26310341437404056	0.4257227320456466	0.4640198802891799	0.3622770062019885	0.48129832139441775	0.7257630233546383	0.38186718078548954	0.45603510894656013	0.9931069538665565	0.35960001569630706	0.4200785949986205	1.1313089461865469	0.3757174860059626	0.3970910259597248	1.1499911858212004	0.4086678126171165	0.5031607474622413	1.1470288692272106	-0.04738399126634423	0.46492539380416104	0.46918631592480275	-0.09779618831216547	0.5763566179431976	0.727091558545563	-0.08988200516147943	0.48318042199813893	0.991250469502725	-0.0625216939562556	0.5024839823250672	1.1016494015960465	-0.083347265419034	0.4957412553946064	1.1399913777027584	-0.12539032982191978	0.5580218025750376	1.1304305116153905
123	2.0847457627118646	0.26974732819917024	0.554329416649421	0.9157247347317194	0.29667244901114437	0.7309379217421871	1.3752994809342474	0.3372748331883272	0.9010117008082235	1.8195517980006493	0.2623985743209775	0.7662851551663469	1.9115615759932625	0.3217433465250899	0.744708217436981	1.8848272987853243	0.3180639104543075	1.0065161029899585	1.8729926946448765	0.024853805234506192	0.6172892668921632	0.939762533250969	0.062603043961452	0.7703482371047329	1.3964483052821657	0.09291406013087371	0.904199344194412	1.820355784101917	0.11432560049215479	0.7511456961257311	1.9028143215811595	0.04703051345741508	0.7756185800950268	1.8908097674527542	0.12106295657892559	0.9932357779796879	1.8758352917142964	0.11464527465270181	0.42510706635631873	0.39741778414507556	0.10166567441488748	0.34158676671462385	0.17156966070153928	0.08501629481224328	0.3040477359935159	0.3130490205485923	0.2631418578005548	0.4254959700946971	0.4640812439839386	0.3623286718765168	0.48108187026198557	0.7256651256260099	0.3944178686516664	0.43973367687473397	0.9912983249360879	0.36351814871622634	0.39480170310614343	1.1282271513509812	0.37808340825625214	0.3844204564210621	1.1445334836392984	0.421584220141354	0.511192797460997	1.1521642898188251	-0.04722233931833081	0.46472695298891104	0.4691682633724933	-0.09776824664599239	0.5777435055660125	0.7302763276661424	-0.1018943474282507	0.48337407306014074	0.9920010991180275	-0.07418752343614002	0.48657553257961056	1.10010923463476	-0.09240543142501499	0.4918534422534756	1.1326609589871193	-0.13305441952529784	0.5602377667212747	1.129650593875357
124	2.1016949152542375	0.26952598737342404	0.5549561615936558	0.9195102672115928	0.29672987319331906	0.7306895270269413	1.3753860992720046	0.3373555792079885	0.9009508358017265	1.8195780573225968	0.2662717030766111	0.7511416609426917	1.9007704451595957	0.32705877265288497	0.7535408652851103	1.8823750641450738	0.3200774544384155	1.0058667428604857	1.8726081399037577	0.02440019477270629	0.618627627743743	0.9433307342951154	0.058542752435324114	0.7831624939802935	1.3947036753577804	0.09256732796422364	0.9053193054494545	1.8294593573541864	0.11586776940164416	0.7539654375697593	1.9087766998101734	0.047297337785839395	0.7761218961659135	1.8910868676242067	0.12429970790674769	1.0069946277257305	1.8819275859005944	0.11463889756061259	0.42495984535958403	0.3973640120580529	0.10156846515498362	0.34159132972030987	0.1715962284356437	0.08502926091713701	0.30395862474810736	0.31303378640634055	0.2665120694222685	0.4229468998420266	0.4604116356907227	0.36213051227041076	0.48111434413700727	0.7219300565728554	0.40956113534682204	0.43630651656011266	0.9869347259859207	0.37157202721026783	0.43295618110716	1.1332218512913004	0.3874525305245783	0.3972861264614325	1.1451421244977753	0.4320254373523266	0.4666952094238452	1.1451471755482	-0.04733518195574323	0.4648857299923066	0.4692624469545101	-0.10128169888751505	0.5648296512083089	0.7309038973646328	-0.11805361462605074	0.5108040606098881	0.9983317317360695	-0.07857386898415711	0.4997457392973464	1.1058855618369543	-0.1103731627820556	0.49118204061196286	1.1411334204891004	-0.14421461349710252	0.5590720412012287	1.1300222420607475
125	2.1186440677966103	0.26216563897586503	0.5570061975248105	0.9201321549274963	0.29656325273611933	0.7303889510116426	1.3753119984460342	0.33726670530473735	0.9007168931795079	1.8195029678150925	0.2660206159631495	0.7509496304290995	1.900921019934537	0.32660461676493635	0.7529854622654536	1.8822925631843532	0.3156618273436726	1.0061485754478494	1.8728727360218258	0.024634545344342954	0.6185023584736389	0.9432362493987805	0.06142229976045588	0.7674612530588771	1.391597137376741	0.09319845885795099	0.9034335208293773	1.8246924722534164	0.11578938476005426	0.7537276218718051	1.9089027868892396	0.04697161702087441	0.7757871066761892	1.8910136220675555	0.12060746276505109	0.9927862542568695	1.8761581679788335	0.1104432497451393	0.4245035222915501	0.3976591354333772	0.1016070206070493	0.3414691132863021	0.17159282630545517	0.08130870285569713	0.3043468605662255	0.31319791018470117	0.26730713031965153	0.42441653223958503	0.4638780035694462	0.36152176296781013	0.47914965858648656	0.7218881339873958	0.4098676086092738	0.43582167845207115	0.9902224171746214	0.3738427588794925	0.40691116786502946	1.1320927796009053	0.39391775107175064	0.4080378693698822	1.1421167913074224	0.44975391534493286	0.4893738909515783	1.1505192846210461	-0.047558955855892836	0.4655555117086285	0.4723322340812245	-0.10582034111836018	0.5633228670849123	0.7310411592541333	-0.13362123948357407	0.5366436450558831	1.0011833723328512	-0.09036168629251487	0.5106068935922295	1.107287694140015	-0.12876742081760317	0.5446407083911442	1.1445813003400291	-0.15101806280688118	0.5611406707546069	1.1422327975393505
126	2.135593220338983	0.2677124622987504	0.5700862203008669	0.9206108107132015	0.2963670335911302	0.7305410447117344	1.3753373746969666	0.3308506567644529	0.8858337359146526	1.8150401110760064	0.2657791725505109	0.7503824453903054	1.900771948428548	0.3332123823027193	0.7567883167291899	1.8867449130018479	0.3198324293827191	1.0290930003800225	1.8851682027155632	0.026027162534066787	0.6473704918995853	0.9484092790194752	0.058517804038091856	0.7829685442674293	1.394769982338491	0.09312880578551282	0.9034708410385011	1.8247189027360164	0.11588329864309962	0.7542349125021929	1.9090035920297164	0.04727229695555509	0.7773772623357561	1.8916606722696934	0.11641945229704308	1.0099759677107176	1.8775697368319524	0.11047567413725651	0.4246067899345738	0.3976890252583653	0.10190028882538964	0.34228285023805705	0.17486647517431583	0.08497771967474677	0.3038345615030233	0.313043174997548	0.26748165223743187	0.42457355990026646	0.46393469577673935	0.36248202175383143	0.48070332639286734	0.725613686464393	0.41538542196553413	0.42089112162019204	0.9882498927421148	0.3813681774443584	0.4072706641417098	1.1310915523937515	0.41638851090387946	0.442851297966871	1.1498729855037448	0.44857231768080824	0.5034242084968805	1.148253152030609	-0.04758807926015512	0.4656781174552177	0.4723305003944269	-0.1035360946935345	0.5480269428344698	0.7272150712205675	-0.14096491032274694	0.5368066230032033	1.00160411380608	-0.10654471260202975	0.5081699991314192	1.0990338395813508	-0.14406371026864317	0.5604605382908753	1.141648985482519	-0.15152079945376334	0.5631253927438957	1.1461432212750875
